<svg xmlns="http://www.w3.org/2000/svg" viewBox="0 0 32 32">
  <rect width="32" height="32" rx="6" fill="#050505"/>
  <defs>
    <linearGradient id="beam" x1="0%" y1="50%" x2="100%" y2="50%">
      <stop offset="0%" stop-color="#fff8d6" stop-opacity="0"/>
      <stop offset="40%" stop-color="#ffe066" stop-opacity="0.55"/>
      <stop offset="100%" stop-color="#ffcc44" stop-opacity="0.95"/>
    </linearGradient>
    <radialGradient id="lens" cx="42%" cy="38%" r="68%">
      <stop offset="0%" stop-color="#fff8d6"/>
      <stop offset="35%" stop-color="#ffe066"/>
      <stop offset="70%" stop-color="#f0a820"/>
      <stop offset="100%" stop-color="#8a5810"/>
    </radialGradient>
    <linearGradient id="body" x1="0%" y1="0%" x2="0%" y2="100%">
      <stop offset="0%" stop-color="#6a6a74"/>
      <stop offset="50%" stop-color="#3a3a42"/>
      <stop offset="100%" stop-color="#1c1c22"/>
    </linearGradient>
  </defs>
  <path d="M11.2 16 L1.2 9.4 L1.2 22.6 Z" fill="url(#beam)" opacity="0.92"/>
  <path d="M11.2 16 L0.6 11.2 L0.6 20.8 Z" fill="#fff6c8" opacity="0.35"/>
  <ellipse cx="10.2" cy="16" rx="3.4" ry="5.2" fill="#ffcc44" opacity="0.22"/>
  <rect x="12.4" y="11.6" width="13.2" height="8.8" rx="2.2" fill="url(#body)" stroke="#5a5a64" stroke-width="0.7"/>
  <rect x="25.2" y="12.4" width="3.2" height="7.2" rx="1.2" fill="#2a2a32" stroke="#6a6a74" stroke-width="0.65"/>
  <rect x="10.1" y="10.4" width="3.1" height="11.2" rx="1.1" fill="#4a4a54" stroke="#7a7a86" stroke-width="0.55"/>
  <ellipse cx="10.5" cy="16" rx="1.55" ry="4.35" fill="url(#lens)" stroke="#c9a227" stroke-width="0.45"/>
  <ellipse cx="10.15" cy="14.2" rx="0.55" ry="1.1" fill="#ffffff" opacity="0.65"/>
  <rect x="15.6" y="9.35" width="5.4" height="2.35" rx="1.15" fill="#1c1c22" stroke="#5a5a64" stroke-width="0.5"/>
  <rect x="15.85" y="9.55" width="2.55" height="1.95" rx="0.9" fill="#ff3366" stroke="#ff6688" stroke-width="0.35"/>
</svg>
